<svg width="48" height="48" viewBox="0 0 48 48" fill="none" xmlns="http://www.w3.org/2000/svg">
<path opacity="0.4" d="M8 29C8 27.8954 8.89544 27 10 27C11.1307 27.0038 12.249 27.608 13.1469 28.2366C14.7033 29.326 16.635 31.33 18.7365 35.0078C19.2845 35.9668 18.9513 37.1884 17.9923 37.7364C17.0332 38.2846 15.8115 37.9514 15.2635 36.9922C13.365 33.67 11.7967 32.174 10.8531 31.5134C10.2735 31.1078 9.93212 31.0138 9.8521 30.9946C8.8166 30.919 8 30.0548 8 29Z" fill="white"/>
<path fill-rule="evenodd" clip-rule="evenodd" d="M39.8748 13.3048C40.2592 14.3404 39.7312 15.4914 38.6956 15.8756C36.5778 16.6614 34.2546 18.2968 31.9026 20.4578C29.573 22.598 27.328 25.148 25.3584 27.6214C23.3928 30.0898 21.726 32.4508 20.55 34.1962C19.92 35.1312 19.2973 36.0732 18.7107 37.0364C18.1379 37.9806 16.9071 38.2834 15.9628 37.7106C15.0183 37.138 14.7169 35.908 15.2897 34.9634C15.4609 34.6852 15.6338 34.4082 15.8091 34.1326C16.1407 33.611 16.6234 32.8654 17.2327 31.961C18.4501 30.1544 20.1802 27.703 22.2294 25.1296C24.2746 22.5614 26.662 19.8406 29.1964 17.5121C31.7084 15.2043 34.4806 13.1731 37.304 12.1254C38.3396 11.7412 39.4906 12.2692 39.8748 13.3048Z" fill="white"/>
</svg>
