<svg width="26" height="24" viewBox="0 0 26 24" fill="none" xmlns="http://www.w3.org/2000/svg">
<path d="M8.89075 17.4948L8.28378 17.3035C7.9226 17.1896 7.73869 16.7814 7.88509 16.4263C8.36436 15.2639 8.75505 14.2254 9.09221 13.1978C8.82636 13.1843 8.55357 13.1691 8.27272 13.1521C7.96336 13.1333 7.71236 12.8885 7.68 12.5746L7.60539 11.8507C7.56392 11.4482 7.89162 11.1063 8.28786 11.135C8.77366 11.1701 9.2355 11.2001 9.67869 11.2248C10.0151 9.96713 10.3074 8.62381 10.6144 7.0057C10.6897 6.6084 11.0988 6.37448 11.4697 6.51944L12.1368 6.78021C12.4262 6.8933 12.5933 7.20363 12.531 7.51286C12.2425 8.94478 11.9654 10.1586 11.6584 11.3002C12.6036 11.317 13.4906 11.3012 14.3909 11.2496C14.0893 10.1227 13.8162 8.92364 13.5319 7.51286C13.4695 7.20363 13.6367 6.8933 13.9261 6.78021L14.5932 6.51944C14.9641 6.37448 15.3732 6.6084 15.4485 7.0057C15.7441 8.56411 16.0262 9.86765 16.3471 11.0852C16.8526 11.0302 17.3758 10.9646 17.9275 10.8878C18.3021 10.8357 18.6415 11.1223 18.656 11.5071L18.6804 12.1538C18.693 12.4882 18.4523 12.7778 18.1263 12.8196C17.6997 12.8744 17.2911 12.924 16.8963 12.9687C17.2502 14.0716 17.6629 15.1774 18.1778 16.4263C18.3242 16.7814 18.1403 17.1896 17.7791 17.3035L17.1721 17.4948C16.8583 17.5938 16.5215 17.4319 16.3974 17.122C15.8088 15.6514 15.3456 14.3981 14.9492 13.1555C13.6491 13.2547 12.4278 13.2907 11.0777 13.2677C10.6893 14.4737 10.2364 15.6956 9.66547 17.122C9.54144 17.4319 9.20458 17.5938 8.89075 17.4948Z" fill="#1E3135"/>
<path d="M23.2468 11.3904C25.4823 17.7412 20.1714 22.4132 17.2365 23.9553C21.8761 20.1175 20.0308 14.3345 19.8726 11.3904C19.7371 8.86696 22.087 8.81439 23.2468 11.3904Z" fill="#F1F1F0"/>
<path d="M4.73057 19.2659C-0.864416 15.501 0.600087 8.59157 2.03171 5.60746C0.606524 11.4481 5.54863 14.9896 7.43779 17.2576C9.05708 19.2015 7.20316 20.6424 4.73057 19.2659Z" fill="#F1F1F0"/>
<path d="M3.58842 6.96517C5.39866 0.481142 12.435 -0.320885 15.7269 0.088605C9.71973 0.589465 7.91526 6.38524 6.35586 8.89012C5.01924 11.0372 3.06175 9.73969 3.58842 6.96517Z" fill="#F1F1F0"/>
<path d="M16.5217 22.4065C10.9548 26.2125 5.04816 22.3161 2.79071 19.8922C7.71485 23.3595 12.8336 20.0769 15.643 19.1579C18.051 18.3702 18.7139 20.6189 16.5217 22.4065Z" fill="#F1F1F0"/>
<path d="M15.3361 1.81642C22.0858 1.78919 24.7743 8.32263 25.2748 11.5927C23.157 5.96492 17.073 5.81043 14.2315 4.99567C11.7959 4.29731 12.5154 2.06598 15.3361 1.81642Z" fill="#F1F1F0"/>
</svg>
