<svg width="82" height="52" viewBox="0 0 82 52" fill="none" xmlns="http://www.w3.org/2000/svg">
<path fill-rule="evenodd" clip-rule="evenodd" d="M76.5602 11.8399C79.2148 8.80112 80.837 4.87291 80.837 0.5H60.006C55.9873 0.5 52.3004 1.90823 49.3877 4.24291H32.5754C29.6628 1.90823 25.9758 0.5 21.9571 0.5H1.16295C1.16295 4.83585 2.78519 8.80112 5.43977 11.8399C2.12155 15.694 0.09375 20.6969 0.09375 26.1445C0.09375 31.6483 1.21977 35.978 3.25189 39.3759C5.76056 42.6148 7.32751 44.1091 10.3857 46.241C17.6269 50.5298 28.0602 51.5 39.6174 51.5H42.3826C53.6647 51.5 63.8757 50.5754 71.0918 46.5417C74.2887 44.404 75.9342 43.006 78.4212 39.9024C80.6591 36.4285 81.9062 31.9367 81.9062 26.1445C81.9062 20.6969 79.8784 15.694 76.5602 11.8399ZM21.6989 41.1534C28.3777 41.1534 33.7919 35.7113 33.7919 28.9982C33.7919 22.285 28.3777 16.843 21.6989 16.843C15.0201 16.843 9.60581 22.285 9.60581 28.9982C9.60581 35.7113 15.0201 41.1534 21.6989 41.1534ZM60.854 41.1534C67.5329 41.1534 72.9471 35.7113 72.9471 28.9982C72.9471 22.285 67.5329 16.843 60.854 16.843C54.1752 16.843 48.761 22.285 48.761 28.9982C48.761 35.7113 54.1752 41.1534 60.854 41.1534ZM35.5618 39.5597H47.0281C47.0281 36.3726 44.4841 33.8156 41.3134 33.7785C38.1426 33.7785 35.5618 36.3726 35.5618 39.5597Z" fill="#0B72DF"/>
<path d="M29.1465 28.9982C29.1465 33.1325 25.8121 36.484 21.6989 36.484C17.5857 36.484 14.2514 33.1325 14.2514 28.9982C14.2514 24.8639 17.5857 21.5124 21.6989 21.5124C25.8121 21.5124 29.1465 24.8639 29.1465 28.9982Z" fill="#0B72DF"/>
<path d="M60.8539 36.484C64.967 36.484 68.3014 33.1325 68.3014 28.9982C68.3014 24.8639 64.967 21.5124 60.8539 21.5124C56.7407 21.5124 53.4063 24.8639 53.4063 28.9982C53.4063 33.1325 56.7407 36.484 60.8539 36.484Z" fill="#0B72DF"/>
</svg>
