<svg width="58" height="36" viewBox="0 0 58 36" fill="none" xmlns="http://www.w3.org/2000/svg">
<path fill-rule="evenodd" clip-rule="evenodd" d="M53.9832 8.00567C55.8573 5.86036 57.0025 3.08715 57.0025 0H42.2964C39.4593 0 36.8564 0.994168 34.8002 2.64239H22.9311C20.8749 0.994168 18.272 0 15.4349 0H0.754828C0.754828 3.06099 1.90008 5.86036 3.77414 8.00567C1.43157 10.7265 0 14.2585 0 18.1043C0 21.9898 0.794941 25.0465 2.22956 27.4453C4.00061 29.7319 5.10683 30.7868 7.26581 32.2919C12.3779 35.3196 19.7435 36.0046 27.9026 36.0046H29.8547C37.8196 36.0046 45.0283 35.3518 50.1226 32.5041C52.3796 30.995 53.5412 30.008 55.297 27.817C56.8769 25.3645 57.7573 22.1934 57.7573 18.1043C57.7573 14.2585 56.3258 10.7265 53.9832 8.00567ZM15.2526 28.7001C19.9677 28.7001 23.79 24.8582 23.79 20.1189C23.79 15.3796 19.9677 11.5377 15.2526 11.5377C10.5376 11.5377 6.71525 15.3796 6.71525 20.1189C6.71525 24.8582 10.5376 28.7001 15.2526 28.7001ZM42.8951 28.7001C47.6101 28.7001 51.4324 24.8582 51.4324 20.1189C51.4324 15.3796 47.6101 11.5377 42.8951 11.5377C38.18 11.5377 34.3577 15.3796 34.3577 20.1189C34.3577 24.8582 38.18 28.7001 42.8951 28.7001ZM25.0394 27.575H33.1343C33.1343 25.3251 31.3384 23.5199 29.0999 23.4937C26.8615 23.4937 25.0394 25.3251 25.0394 27.575Z" fill="white"/>
<path d="M20.5104 20.1189C20.5104 23.0376 18.1564 25.4037 15.2526 25.4037C12.3489 25.4037 9.99487 23.0376 9.99487 20.1189C9.99487 17.2002 12.3489 14.8341 15.2526 14.8341C18.1564 14.8341 20.5104 17.2002 20.5104 20.1189Z" fill="white"/>
<path d="M42.8949 25.4037C45.7987 25.4037 48.1527 23.0376 48.1527 20.1189C48.1527 17.2002 45.7987 14.8341 42.8949 14.8341C39.9912 14.8341 37.6372 17.2002 37.6372 20.1189C37.6372 23.0376 39.9912 25.4037 42.8949 25.4037Z" fill="white"/>
</svg>
