<svg width="95" height="95" viewBox="0 0 95 95" fill="none" xmlns="http://www.w3.org/2000/svg">
<path d="M84.6608 9.87501C75.7442 0.992744 62.9233 0 47.2559 0C31.5688 0 18.7285 1.00419 9.81557 9.91045C0.903953 18.813 0 31.6327 0 47.3019C0 62.9737 0.903954 75.7972 9.81926 84.7029C18.7316 93.6105 31.5705 94.512 47.2559 94.512C62.9416 94.512 75.7782 93.6105 84.6905 84.7029C93.6053 75.7956 94.5118 62.9737 94.5118 47.3019C94.5118 31.6126 93.5955 18.7791 84.6608 9.87501Z" fill="#0B72DF"/>
<path fill-rule="evenodd" clip-rule="evenodd" d="M71.9832 39.0057C73.8573 36.8604 75.0025 34.0872 75.0025 31H60.2964C57.4593 31 54.8564 31.9942 52.8002 33.6424H40.9311C38.8749 31.9942 36.272 31 33.4349 31H18.7548C18.7548 34.061 19.9001 36.8604 21.7741 39.0057C19.4316 41.7265 18 45.2585 18 49.1043C18 52.9898 18.7949 56.0465 20.2296 58.4453C22.0006 60.7319 23.1068 61.7868 25.2658 63.2919C30.3779 66.3196 37.7435 67.0046 45.9026 67.0046H47.8547C55.8196 67.0046 63.0283 66.3518 68.1226 63.5041C70.3796 61.995 71.5412 61.008 73.297 58.817C74.8769 56.3645 75.7573 53.1934 75.7573 49.1043C75.7573 45.2585 74.3258 41.7265 71.9832 39.0057ZM33.2526 59.7001C37.9677 59.7001 41.79 55.8582 41.79 51.1189C41.79 46.3796 37.9677 42.5377 33.2526 42.5377C28.5376 42.5377 24.7153 46.3796 24.7153 51.1189C24.7153 55.8582 28.5376 59.7001 33.2526 59.7001ZM60.8951 59.7001C65.6101 59.7001 69.4324 55.8582 69.4324 51.1189C69.4324 46.3796 65.6101 42.5377 60.8951 42.5377C56.18 42.5377 52.3577 46.3796 52.3577 51.1189C52.3577 55.8582 56.18 59.7001 60.8951 59.7001ZM43.0394 58.575H51.1343C51.1343 56.3251 49.3384 54.5199 47.0999 54.4937C44.8615 54.4937 43.0394 56.3251 43.0394 58.575Z" fill="white"/>
<path d="M38.5104 51.1189C38.5104 54.0376 36.1564 56.4037 33.2526 56.4037C30.3489 56.4037 27.9949 54.0376 27.9949 51.1189C27.9949 48.2002 30.3489 45.8341 33.2526 45.8341C36.1564 45.8341 38.5104 48.2002 38.5104 51.1189Z" fill="white"/>
<path d="M60.8949 56.4037C63.7987 56.4037 66.1527 54.0376 66.1527 51.1189C66.1527 48.2002 63.7987 45.8341 60.8949 45.8341C57.9912 45.8341 55.6372 48.2002 55.6372 51.1189C55.6372 54.0376 57.9912 56.4037 60.8949 56.4037Z" fill="white"/>
</svg>
