<svg width="82" height="51" viewBox="0 0 82 51" fill="none" xmlns="http://www.w3.org/2000/svg">
<path fill-rule="evenodd" clip-rule="evenodd" d="M76.5602 11.3399C79.2148 8.30112 80.837 4.37291 80.837 0H60.006C55.9873 0 52.3004 1.40823 49.3877 3.74291H32.5754C29.6628 1.40823 25.9758 0 21.9571 0H1.16295C1.16295 4.33585 2.78519 8.30112 5.43977 11.3399C2.12155 15.194 0.09375 20.1969 0.09375 25.6445C0.09375 31.1483 1.21977 35.478 3.25189 38.8759C5.76056 42.1148 7.32751 43.6091 10.3857 45.741C17.6269 50.0298 28.0602 51 39.6174 51H42.3826C53.6647 51 63.8757 50.0754 71.0918 46.0417C74.2887 43.904 75.9342 42.506 78.4212 39.4024C80.6591 35.9285 81.9062 31.4367 81.9062 25.6445C81.9062 20.1969 79.8784 15.194 76.5602 11.3399ZM21.6989 40.6534C28.3777 40.6534 33.7919 35.2113 33.7919 28.4982C33.7919 21.785 28.3777 16.343 21.6989 16.343C15.0201 16.343 9.60581 21.785 9.60581 28.4982C9.60581 35.2113 15.0201 40.6534 21.6989 40.6534ZM60.854 40.6534C67.5329 40.6534 72.9471 35.2113 72.9471 28.4982C72.9471 21.785 67.5329 16.343 60.854 16.343C54.1752 16.343 48.761 21.785 48.761 28.4982C48.761 35.2113 54.1752 40.6534 60.854 40.6534ZM35.5618 39.0597H47.0281C47.0281 35.8726 44.4841 33.3156 41.3134 33.2785C38.1426 33.2785 35.5618 35.8726 35.5618 39.0597Z" fill="#FF258C"/>
<path d="M29.1465 28.4982C29.1465 32.6325 25.8121 35.984 21.6989 35.984C17.5857 35.984 14.2514 32.6325 14.2514 28.4982C14.2514 24.3639 17.5857 21.0124 21.6989 21.0124C25.8121 21.0124 29.1465 24.3639 29.1465 28.4982Z" fill="#FF258C"/>
<path d="M60.8539 35.984C64.967 35.984 68.3014 32.6325 68.3014 28.4982C68.3014 24.3639 64.967 21.0124 60.8539 21.0124C56.7407 21.0124 53.4063 24.3639 53.4063 28.4982C53.4063 32.6325 56.7407 35.984 60.8539 35.984Z" fill="#FF258C"/>
</svg>
