<svg width="48" height="48" viewBox="0 0 48 48" fill="none" xmlns="http://www.w3.org/2000/svg">
<path opacity="0.4" fill-rule="evenodd" clip-rule="evenodd" d="M42 24C42 25.1046 41.1046 26 40 26H8C6.89544 26 6 25.1046 6 24C6 22.8954 6.89544 22 8 22H40C41.1046 22 42 22.8954 42 24Z" fill="white"/>
<path d="M37.9442 24C37.7576 23.6904 37.3664 23.1342 36.9388 22.6502C36.0872 21.6864 34.9138 20.5856 33.6888 19.5221C32.4738 18.4671 31.2528 17.4873 30.332 16.7687C29.8728 16.4103 29.0802 15.8115 28.8138 15.6104C27.9246 14.9554 27.7346 13.7035 28.3896 12.8141C29.0446 11.9247 30.2966 11.7347 31.186 12.3897L31.1934 12.3953C31.4822 12.6134 32.3194 13.2458 32.793 13.6153C33.7472 14.36 35.0262 15.3861 36.3112 16.5017C37.5862 17.6087 38.9128 18.8432 39.9362 20.0016C40.446 20.5784 40.9228 21.1836 41.2832 21.7812C41.6104 22.324 42 23.1136 42 24C42 24.8862 41.6104 25.676 41.2832 26.2188C40.9228 26.8164 40.446 27.4216 39.9362 27.9984C38.9128 29.1568 37.5862 30.3914 36.3112 31.4984C35.0262 32.614 33.7472 33.64 32.793 34.3846C32.3194 34.7542 31.4828 35.3862 31.194 35.6042L31.186 35.6102C30.2966 36.2652 29.0446 36.0752 28.3896 35.1858C27.7346 34.2966 27.9246 33.0446 28.8138 32.3896C29.0802 32.1884 29.8728 31.5896 30.332 31.2312C31.2528 30.5128 32.4738 29.5328 33.6888 28.4778C34.9138 27.4144 36.0872 26.3136 36.9388 25.3498C37.3664 24.8658 37.7576 24.3096 37.9442 24Z" fill="white"/>
</svg>
