<svg width="362" height="262" viewBox="0 0 362 262" fill="none" xmlns="http://www.w3.org/2000/svg">
<path d="M143.343 84.4454C136.869 92.9566 123.591 91.1795 119.583 81.2655L115.862 72.0622C114.052 67.5849 114.717 62.487 117.613 58.6229L156.724 6.44942C159.711 2.46517 164.613 0.400602 169.55 1.04806L284.441 16.1148C289.436 16.7699 293.676 20.0967 295.501 24.7924L317.535 81.491C317.848 82.2961 318.092 83.132 318.22 83.9861C320.875 101.643 310.411 115.598 303.57 121.542C302.611 122.375 301.491 122.984 300.308 123.448L95.5701 203.764C88.452 206.556 80.4209 203.023 77.6689 195.889L31.9671 77.4175C30.2085 72.8587 30.9937 67.7097 34.0312 63.8824L37.2099 59.8771C43.8361 51.5278 57.0251 53.5323 60.8715 63.4732L95.332 152.535C98.0814 159.64 106.072 163.17 113.176 160.416L273.999 98.083C281.172 95.3025 284.683 87.1892 281.799 80.0564L272.865 57.9604C271.015 53.3861 266.862 50.1487 261.975 49.4708L186.715 39.0327C181.781 38.3484 176.861 40.3785 173.845 44.3434L143.343 84.4454Z" fill="#C61D22"/>
<path d="M89.9563 119.325C92.7881 126.466 100.91 129.916 108.016 126.996L115.037 124.111C121.971 121.262 125.358 113.396 122.664 106.401L93.1777 29.8334C89.5919 20.5222 77.61 17.9837 70.5564 25.0408L64.0841 31.5164C60.196 35.4064 58.9913 41.2349 61.0186 46.3475L89.9563 119.325Z" fill="#C61D22"/>
<path d="M2.85998 114.612C1.08671 110.084 1.8296 104.957 4.81512 101.118L7.87333 97.1859C14.419 88.7698 27.6311 90.6485 31.5714 100.556L77.0161 214.817C77.748 216.657 78.1007 218.642 77.8941 220.611C75.229 246.014 55.8898 258.748 46.2009 262C50.828 252.38 50.1713 239.579 49.118 233.347C48.9865 232.569 48.7569 231.812 48.4691 231.077L2.85998 114.612Z" fill="#C61D22"/>
<path fill-rule="evenodd" clip-rule="evenodd" d="M325.66 89.6013C325.717 82.9468 329.185 76.4683 335.415 74.1306L345.251 70.4403C351.94 67.9307 359.519 70.9889 360.778 78.0211C364.109 96.6337 360.112 126.268 328.098 153.096C326.99 154.025 325.709 154.762 324.36 155.281L69.8318 253.122C73.8907 248.089 80.9194 236.925 83.3454 225.224C84.5837 219.251 88.0101 213.504 93.7039 211.315L303.537 130.662C311.54 126.242 325.464 112.451 325.66 89.6013ZM174.29 207.863C180.629 207.863 185.768 202.722 185.768 196.379C185.768 190.037 180.629 184.896 174.29 184.896C167.951 184.896 162.812 190.037 162.812 196.379C162.812 202.722 167.951 207.863 174.29 207.863ZM216.054 184.992C216.054 191.334 210.916 196.476 204.576 196.476C198.237 196.476 193.099 191.334 193.099 184.992C193.099 178.65 198.237 173.509 204.576 173.509C210.916 173.509 216.054 178.65 216.054 184.992ZM232.162 185.089C238.501 185.089 243.64 179.947 243.64 173.605C243.64 167.263 238.501 162.122 232.162 162.122C225.823 162.122 220.684 167.263 220.684 173.605C220.684 179.947 225.823 185.089 232.162 185.089Z" fill="#C61D22"/>
<path d="M350.317 53.365C350.317 63.1182 342.414 71.0247 332.666 71.0247C322.918 71.0247 315.015 63.1182 315.015 53.365C315.015 43.6118 322.918 35.7053 332.666 35.7053C342.414 35.7053 350.317 43.6118 350.317 53.365Z" fill="#C61D22"/>
<path d="M334.306 19.9757C334.306 29.7289 326.403 37.6354 316.655 37.6354C306.906 37.6354 299.004 29.7289 299.004 19.9757C299.004 10.2225 306.906 2.31602 316.655 2.31602C326.403 2.31602 334.306 10.2225 334.306 19.9757Z" fill="#C61D22"/>
</svg>
